<svg xmlns="http://www.w3.org/2000/svg" width="128" height="128" viewBox="0 0 128 128"><g fill="none" fill-rule="evenodd"><path fill="#E4E4E3" d="M62.623 128c31.87 0 57.866-4.944 57.866-11.01 0-6.065-25.995-11.012-57.866-11.012-31.872 0-57.867 4.947-57.867 11.011C4.756 123.056 30.75 128 62.623 128"/><path fill="#F8CE45" d="M69.817.001c34.365.216 57.002 28.67 49.092 64.226-7.909 35.557-34.352 59.544-67.412 58.215-33.054-1.327-53.73-28.702-48.763-62.879C7.704 25.386 35.454-.212 69.817.001"/><path fill="#EFC43E" d="M91.556 13.763c5.93 2.362 12.435 3.258 17.451 8.576-1.141-2.535-2.965-3.235-4.107-5.767l-13.344-2.809s4.449.937 0 0zm8.725 14.293c7.3 2.026 13.12 4.884 17.452 8.576-.62-1.572-1.236-3.142-1.857-4.71l-15.595-3.866s5.2 1.289 0 0zm2.91 14.293c6.693 2.148 11.539 5.008 14.542 8.576-.346-1.939-.692-3.877-1.041-5.818-4.5-.919-9.002-1.84-13.502-2.758 0 0 4.5.919 0 0zm-2.91 20.01c5.628 2.253 10.7 5.03 11.899 11.434.883-2.655 1.761-5.313 2.645-7.97-4.848-1.156-9.696-2.31-14.544-3.464 0 0 4.848 1.154 0 0zM91.556 79.51c4.035 2.057 7.396 4.383 6.04 8.576.895-2.085 1.791-4.173 2.685-6.26l-8.725-2.316z"/><path fill="#F7D974" d="M72.267 4.607C28.717 16.428-3.64 47.763 10.167 97.72 4.305 87.45 4.2 75.2 5.29 62.54c3.006-19.008 12.705-35.107 26.983-49.218C41.92 8.407 61.642 2.376 72.267 4.607m5.51.898c35.814 12.548 41.307 43.658 8.874 82.581 22.978-35.978 24.88-65.726-8.873-82.58"/><path fill="#EFC43E" d="M10.267 71.767c7.227 22.372 36.998 12.626 51.616.893C83.248 55.517 95.39 21.895 84.145 8.258c13.217 12.98 18.963 29.176 13.791 50.077-18.416 42.569-74.726 72.004-87.67 13.432"/><path fill="#EFC43E" d="M86.044 16.291C62.68 2.234 34.48 20.58 21.991 45.607c-12.488 25.026-9.587 61.991 30.859 56.597-19.74 5.598-33.546 1.805-38.674-15.714-9.05-24.797-2.121-46.551 18.046-65.782 21.54-14.414 40.88-16.875 53.822-4.417"/><path fill="#EFC43E" d="M83.949 4.129c84.169 46.795-31.577 146.004-76.438 87.69 15.433 35.025 49.786 39.829 82.643 21.764C117.1 90.561 132.702 64.048 116.94 27.88c-6.287-11.91-17.124-20.259-32.991-23.75"/><path fill="#F7D974" d="M105.333 44.698c3.418-6.646 7.798-3.19 13.778 5.151-3.736-3.435-8.331-5.151-13.778-5.151zm-2.755-15.275c4.233-4.169 8.724-4.201 13.778 6.018-3.778-3.523-8.371-5.29-13.778-6.018 0 0 5.407.729 0 0zM94.31 14.25c1.653-1.642 8.069-3.627 11.022 1.02-3.2-.408-7.824-.612-11.022-1.02 0 0 3.198.408 0 0zm8.267 49.535c2.09-4.908 9.184-2.057 13.778 6.238-3.338-5.135-7.932-7.215-13.778-6.238 0 0 5.846-.977 0 0zM94.31 80.816c1.632-4.562 6.428-1.613 13.778 6.496-4.49-1.773-9.287-4.723-13.778-6.496 0 0 4.49 1.773 0 0zM83.29 94.8c3.186-3.206 8.657-2.978 11.022 9.802-1.688-5.84-5.363-9.11-11.022-9.802z"/><path fill="#DBA336" d="M59.867 5.952C18.215 11.799-6.215 54.76 4.529 84.783c16.084 46.537 66.325 46.702 96.982 18.46 17.2-15.84 29.027-41.94 22.812-69.682-7.29-36.223-72.667-47.03-103.192-12.855C95.7-33.101 155.423 42.82 97.104 98.8c-29.139 27.967-76.243 30.353-87.693-16.1-8.138-34.8 9.442-64.363 50.456-76.748"/><path fill="#DBA336" d="M76.43 5.505c55.578 20.517 13.857 116.256-44.119 105.074 55.762-1.496 91.4-76.783 44.12-105.074"/><path fill="#DBA336" d="M88.8 22.56C82.198 6.785 69.279 6.816 56.757 9.8c-14.281 3.402-29.853 14.82-38.722 29.66C6.63 58.54 7.405 87.514 22.879 103.39c6.478 6.642 16.72 7.515 32.623.2-19.275 5.417-25.521 2.175-30.529-2.07-14.386-12.184-15.42-40.747-4.578-59.798 8.428-14.818 24.46-27.201 35.57-29.468C67.099 9.98 79.397 7.574 88.8 22.56m2.756-8.437c6.865-4.089 13.459-.57 16.533 6.522-4.159-4.161-10.21-5.986-16.533-6.522m8.266 15.14c7.438-4.088 14.581-.57 17.911 6.522-4.502-4.165-11.058-5.986-17.91-6.522m4.133 15.14c6.865-4.088 13.461-.57 16.533 6.522-4.159-4.163-10.21-5.987-16.533-6.523m-4.134 17.893c7.438-4.088 14.581-.57 17.911 6.522-4.502-4.162-11.058-5.986-17.91-6.522m-8.267 17.994c6.457-1.894 13.054 2.312 16.533 7.797-4.154-1.465-10.21-3.643-16.533-7.797m-8.267 11.938c7.552-.32 11.897 5.76 12.4 12.375-3.39-2.592-8.298-6.42-12.4-12.375m-13.778 9.648c4.217-.47 5.918 5.635 5.43 12.362-1.575-2.575-3.849-6.378-5.43-12.362m-10.976 5.48c3.322 2.082 5.404 5.209 5.465 8.258-3.242-1.475-5.898-4.035-5.465-8.258m-13.777 2.753c3.32 2.085 5.401 5.21 5.464 8.258-3.242-1.48-5.9-4.04-5.464-8.258"/><path fill="#DBA336" d="M29.602 107.355c3.322 2.06 5.406 5.188 5.465 8.258-3.243-1.45-5.898-3.999-5.465-8.258m-7.966-5.506c2.782 2.05 4.188 5.175 3.686 8.259-2.82-1.433-4.883-3.98-3.686-8.259"/><path fill="#F7D974" d="M64.39 17.918c13.473-.651 17.438 11.445 8.853 27.013-8.585 15.568-26.473 28.716-39.945 29.367-13.472.65-17.438-11.448-8.852-27.016 8.582-15.566 26.472-28.719 39.945-29.364"/><path fill="#DBA336" d="M75.82 20.66c5.88-.095 7.022.281 10.224.946l-3.568 11.485c-2.964-1.259-6.026-1.96-10.193-2.003-4.168-.042-9.088.89-13.211 2.522-4.083 1.62-7.84 3.973-10.903 6.804 3.505.126 7.076.26 10.71.386 3.242.116 6.26-2.243 9.619-2.119.482.017 1.252 2.51 1.734 2.527-1.028 3.068-2.078 6.183-3.135 9.346-4.45-.27-8.79-.532-13.038-.784-4.155-.245-8.223-.492-12.198-.73-.11.255-.117.243-.324.767-.207.524-.567 1.57-.78 2.344 3.917.27 7.934.536 12.023.818 3.72.255 6.484.121 10.36.388.477.033 1.383 1.565 1.86 1.6-1.094 3.264-1.593 5.474-2.725 8.834-3.722-.353-7.38-.697-10.966-1.036-3.512-.329-6.966-.66-10.356-.981 1.027 3.038 3 5.728 5.794 7.808 2.874 2.133 6.822 3.646 11.078 4.16 3.724.45 7.02-2.897 10.553-3.668.505-.11 1.36 2.58 1.744 2.759-1.512 4.86-3.054 9.825-4.632 14.906-4.148.388-5.948.653-12.288-.351-6.338-1.004-15.433-5.044-19.922-10.018-4.255-4.718-6.474-10.614-6.389-16.917-3.402-.316-5.692-.465-8.96-.769.248-.551-2.385-2.462-2.137-3.014 1.07-2.378 3.963-3.54 5.01-5.874 2.541.17 5.12.346 7.744.524.268-.749.662-1.753.879-2.252.212-.502.214-.5.331-.742-2.49-.146-4.942-.29-7.356-.43-.29-.789-1.076-2.473-.903-3.54 2.91.1 10.488-4.51 13.503-4.404 4.545-5.595 10.712-10.323 17.644-13.675 7.015-3.395 17.294-5.526 23.173-5.618"/><path fill="#F8DE32" d="M75.658 17.906c5.974-.091 7.135.284 10.386.95a69011.48 69011.48 0 0 0-3.625 11.481c-3.009-1.256-6.122-1.96-10.354-2-4.234-.042-9.235.89-13.422 2.522-4.15 1.62-7.968 3.973-11.079 6.801 3.564.126 7.189.26 10.884.388 3.763.131 7.616.267 11.534.408-1.047 3.069-2.111 6.181-3.185 9.343-4.521-.269-8.933-.529-13.25-.78-4.22-.246-8.353-.495-12.392-.733-.111.258-.119.243-.327.767-.21.524-.579 1.57-.792 2.346 3.98.267 8.058.537 12.215.816l13.041.885c-1.11 3.269-2.247 6.58-3.397 9.939-3.782-.354-7.498-.7-11.139-1.038-3.568-.33-7.08-.66-10.524-.98 1.044 3.037 3.051 5.727 5.887 7.806 2.92 2.136 6.934 3.65 11.255 4.163 4.323.515 8.386.144 12.494-.912-1.532 4.86-3.103 9.828-4.707 14.908-4.214.389-6.043.653-12.482-.35C46.238 83.631 37 79.591 32.437 74.614 28.114 69.9 25.862 64 25.946 57.699l-10.168-.935c1.343-2.942 2.675-5.847 3.986-8.72 2.581.17 5.202.346 7.867.524.27-.751.673-1.755.891-2.254.218-.5.22-.5.34-.74l-7.48-.43 3.77-8.258 9.034.312c4.618-5.595 10.884-10.32 17.929-13.675 7.124-3.392 17.57-5.525 23.543-5.617"/></g></svg>